<svg width="99" height="99" viewBox="0 0 99 99" fill="none" xmlns="http://www.w3.org/2000/svg">
<rect x="0.5" y="0.5" width="98" height="98" rx="7.5" stroke="url(#paint0_linear_129_41)"/>
<path d="M19.0795 57.2273C18.0616 57.2273 17.1809 56.9905 16.4375 56.517C15.6941 56.0388 15.1188 55.3783 14.7116 54.5355C14.3092 53.688 14.108 52.7126 14.108 51.6094C14.108 50.5109 14.3092 49.5355 14.7116 48.6832C15.1188 47.8262 15.6799 47.1562 16.3949 46.6733C17.1146 46.1856 17.9455 45.9418 18.8878 45.9418C19.4796 45.9418 20.0502 46.0507 20.5994 46.2685C21.1487 46.4815 21.6411 46.8106 22.0767 47.2557C22.517 47.696 22.8651 48.2524 23.1207 48.9247C23.3764 49.5923 23.5043 50.383 23.5043 51.2969V51.9219H14.9815V50.8068H22.2116C22.2116 50.1061 22.0696 49.4763 21.7855 48.9176C21.5062 48.3542 21.1155 47.9091 20.6136 47.5824C20.1165 47.2557 19.5412 47.0923 18.8878 47.0923C18.1965 47.0923 17.5881 47.277 17.0625 47.6463C16.5369 48.0156 16.125 48.5033 15.8267 49.1094C15.5331 49.7154 15.384 50.3783 15.3793 51.098V51.7656C15.3793 52.6321 15.5284 53.3897 15.8267 54.0384C16.1297 54.6823 16.5582 55.1818 17.1122 55.5369C17.6662 55.892 18.322 56.0696 19.0795 56.0696C19.5956 56.0696 20.0478 55.9891 20.4361 55.8281C20.8291 55.6671 21.1581 55.4517 21.4233 55.1818C21.6932 54.9072 21.8968 54.6065 22.0341 54.2798L23.2344 54.6705C23.0687 55.1297 22.7964 55.5535 22.4176 55.9418C22.0436 56.33 21.5748 56.6425 21.0114 56.8793C20.4527 57.1113 19.8087 57.2273 19.0795 57.2273ZM26.7784 46.0909L29.5909 50.7429L32.4034 46.0909H33.8736L30.3651 51.5455L33.8736 57H32.4034L29.5909 52.4972L26.7784 57H25.3153L28.7812 51.5455L25.3153 46.0909H26.7784ZM36.5245 61.0909V46.0909H37.7532V48.1719H37.9023C38.0539 47.8452 38.2622 47.5114 38.5273 47.1705C38.7925 46.8248 39.1429 46.5336 39.5785 46.2969C40.0188 46.0601 40.5728 45.9418 41.2404 45.9418C42.14 45.9418 42.926 46.1785 43.5984 46.652C44.2755 47.1207 44.801 47.7789 45.1751 48.6264C45.5539 49.4692 45.7433 50.4517 45.7433 51.5739C45.7433 52.7008 45.5539 53.688 45.1751 54.5355C44.801 55.383 44.2755 56.0436 43.5984 56.517C42.926 56.9905 42.1448 57.2273 41.2546 57.2273C40.5965 57.2273 40.0449 57.1089 39.5998 56.8722C39.1594 56.6354 38.802 56.3442 38.5273 55.9986C38.2575 55.6482 38.0491 55.3073 37.9023 54.9759H37.7887V61.0909H36.5245ZM37.7745 51.5526C37.7745 52.4332 37.9047 53.2145 38.1651 53.8963C38.4303 54.5734 38.8091 55.1061 39.3015 55.4943C39.7987 55.8778 40.4 56.0696 41.1055 56.0696C41.8299 56.0696 42.4407 55.8707 42.9379 55.473C43.4397 55.0705 43.8209 54.5284 44.0813 53.8466C44.3465 53.1648 44.479 52.4001 44.479 51.5526C44.479 50.7145 44.3488 49.9593 44.0884 49.2869C43.8327 48.6146 43.454 48.0819 42.9521 47.6889C42.4502 47.2912 41.8346 47.0923 41.1055 47.0923C40.3952 47.0923 39.7915 47.2841 39.2944 47.6676C38.7972 48.0464 38.4184 48.572 38.158 49.2443C37.9023 49.9119 37.7745 50.6813 37.7745 51.5526ZM48.5167 57V46.0909H49.7454V47.767H49.8377C50.0555 47.2178 50.4343 46.7751 50.9741 46.4389C51.5186 46.098 52.1341 45.9276 52.8207 45.9276C52.9248 45.9276 53.0408 45.9299 53.1687 45.9347C53.2965 45.9394 53.4031 45.9441 53.4883 45.9489V47.2344C53.4315 47.2249 53.332 47.2107 53.19 47.1918C53.0479 47.1728 52.8941 47.1634 52.7283 47.1634C52.1602 47.1634 51.6535 47.2841 51.2085 47.5256C50.7681 47.7623 50.4201 48.0914 50.1644 48.5128C49.9087 48.9342 49.7809 49.4148 49.7809 49.9545V57H48.5167ZM59.7241 57.2273C58.7061 57.2273 57.8254 56.9905 57.082 56.517C56.3387 56.0388 55.7634 55.3783 55.3562 54.5355C54.9537 53.688 54.7525 52.7126 54.7525 51.6094C54.7525 50.5109 54.9537 49.5355 55.3562 48.6832C55.7634 47.8262 56.3245 47.1562 57.0394 46.6733C57.7591 46.1856 58.5901 45.9418 59.5323 45.9418C60.1242 45.9418 60.6947 46.0507 61.244 46.2685C61.7932 46.4815 62.2856 46.8106 62.7212 47.2557C63.1616 47.696 63.5096 48.2524 63.7653 48.9247C64.021 49.5923 64.1488 50.383 64.1488 51.2969V51.9219H55.6261V50.8068H62.8562C62.8562 50.1061 62.7141 49.4763 62.43 48.9176C62.1507 48.3542 61.7601 47.9091 61.2582 47.5824C60.761 47.2557 60.1857 47.0923 59.5323 47.0923C58.841 47.0923 58.2326 47.277 57.707 47.6463C57.1815 48.0156 56.7695 48.5033 56.4712 49.1094C56.1777 49.7154 56.0285 50.3783 56.0238 51.098V51.7656C56.0238 52.6321 56.1729 53.3897 56.4712 54.0384C56.7743 54.6823 57.2028 55.1818 57.7567 55.5369C58.3107 55.892 58.9665 56.0696 59.7241 56.0696C60.2402 56.0696 60.6924 55.9891 61.0806 55.8281C61.4736 55.6671 61.8027 55.4517 62.0678 55.1818C62.3377 54.9072 62.5413 54.6065 62.6786 54.2798L63.8789 54.6705C63.7132 55.1297 63.4409 55.5535 63.0621 55.9418C62.6881 56.33 62.2193 56.6425 61.6559 56.8793C61.0972 57.1113 60.4532 57.2273 59.7241 57.2273ZM74.2642 48.4844L73.1065 48.8111C72.9929 48.4844 72.8319 48.1884 72.6236 47.9233C72.4152 47.6581 72.143 47.4474 71.8068 47.2912C71.4754 47.1349 71.0634 47.0568 70.571 47.0568C69.8324 47.0568 69.2263 47.232 68.7528 47.5824C68.2794 47.9328 68.0426 48.3849 68.0426 48.9389C68.0426 49.4077 68.2036 49.7888 68.5256 50.0824C68.8523 50.3712 69.3542 50.6009 70.0312 50.7713L71.679 51.1761C72.5928 51.3987 73.277 51.7514 73.7315 52.2344C74.1908 52.7173 74.4205 53.3234 74.4205 54.0526C74.4205 54.6681 74.25 55.215 73.9091 55.6932C73.5682 56.1714 73.0923 56.5478 72.4815 56.8224C71.8755 57.0923 71.1723 57.2273 70.3722 57.2273C69.3068 57.2273 68.4285 56.9882 67.7372 56.5099C67.0459 56.027 66.6032 55.331 66.4091 54.4219L67.6236 54.1236C67.7798 54.7723 68.0852 55.2623 68.5398 55.5938C68.9991 55.9252 69.6027 56.0909 70.3509 56.0909C71.1889 56.0909 71.8589 55.9039 72.3608 55.5298C72.8627 55.151 73.1136 54.6776 73.1136 54.1094C73.1136 53.669 72.9669 53.2997 72.6733 53.0014C72.3797 52.6984 71.9347 52.4759 71.3381 52.3338L69.5554 51.9077C68.6084 51.6804 67.9077 51.3205 67.4531 50.8281C66.9986 50.3357 66.7713 49.7249 66.7713 48.9957C66.7713 48.3944 66.9347 47.8665 67.2614 47.4119C67.5881 46.9527 68.0379 46.5928 68.6108 46.3324C69.1837 46.072 69.8371 45.9418 70.571 45.9418C71.5701 45.9418 72.3679 46.169 72.9645 46.6236C73.5658 47.0734 73.9991 47.6937 74.2642 48.4844ZM84.5181 48.4844L83.3604 48.8111C83.2468 48.4844 83.0858 48.1884 82.8775 47.9233C82.6692 47.6581 82.3969 47.4474 82.0607 47.2912C81.7293 47.1349 81.3174 47.0568 80.8249 47.0568C80.0863 47.0568 79.4802 47.232 79.0067 47.5824C78.5333 47.9328 78.2965 48.3849 78.2965 48.9389C78.2965 49.4077 78.4575 49.7888 78.7795 50.0824C79.1062 50.3712 79.6081 50.6009 80.2852 50.7713L81.9329 51.1761C82.8467 51.3987 83.5309 51.7514 83.9854 52.2344C84.4447 52.7173 84.6744 53.3234 84.6744 54.0526C84.6744 54.6681 84.5039 55.215 84.163 55.6932C83.8221 56.1714 83.3462 56.5478 82.7354 56.8224C82.1294 57.0923 81.4263 57.2273 80.6261 57.2273C79.5607 57.2273 78.6824 56.9882 77.9911 56.5099C77.2998 56.027 76.8571 55.331 76.663 54.4219L77.8775 54.1236C78.0337 54.7723 78.3391 55.2623 78.7937 55.5938C79.253 55.9252 79.8567 56.0909 80.6048 56.0909C81.4428 56.0909 82.1128 55.9039 82.6147 55.5298C83.1166 55.151 83.3675 54.6776 83.3675 54.1094C83.3675 53.669 83.2208 53.2997 82.9272 53.0014C82.6336 52.6984 82.1886 52.4759 81.592 52.3338L79.8093 51.9077C78.8623 51.6804 78.1616 51.3205 77.707 50.8281C77.2525 50.3357 77.0252 49.7249 77.0252 48.9957C77.0252 48.3944 77.1886 47.8665 77.5153 47.4119C77.842 46.9527 78.2918 46.5928 78.8647 46.3324C79.4376 46.072 80.091 45.9418 80.8249 45.9418C81.824 45.9418 82.6218 46.169 83.2184 46.6236C83.8197 47.0734 84.253 47.6937 84.5181 48.4844Z" fill="white"/>
<defs>
<linearGradient id="paint0_linear_129_41" x1="0" y1="0" x2="99" y2="99" gradientUnits="userSpaceOnUse">
<stop stop-color="white"/>
<stop offset="0.491767" stop-color="white" stop-opacity="0"/>
</linearGradient>
</defs>
</svg>
